PathFileType	4	(X/Y/Z)	Run_200 01
DataRate	CameraRate	NumFrames	NumMarkers	Units	OrigDataRate	OrigDataStartFrame	OrigNumFrames
120	120	4	42	mm	120	398	128
Frame#	Time	LASI			RASI			LPSI			RPSI			RTH1			RTH2			RTH3			LTH1			LTH2			LTH3			RTB1			RTB2			RTB3			LTB1			LTB2			LTB3			RCAL			RTOE			RMT5			LCAL			LTOE			LMT5			LACR			RACR			CLAV			C7			RUA1			RUA2			RUA3			RLEL			LUA1			LUA2			LUA3			LLEL			RFAsuperior			RFAradius			RFAulna			LFAsuperior			LFAradius			LFAulna			LMEL			RMEL		
		X1	Y1	Z1	X2	Y2	Z2	X3	Y3	Z3	X4	Y4	Z4	X5	Y5	Z5	X6	Y6	Z6	X7	Y7	Z7	X8	Y8	Z8	X9	Y9	Z9	X10	Y10	Z10	X11	Y11	Z11	X12	Y12	Z12	X13	Y13	Z13	X14	Y14	Z14	X15	Y15	Z15	X16	Y16	Z16	X17	Y17	Z17	X18	Y18	Z18	X19	Y19	Z19	X20	Y20	Z20	X21	Y21	Z21	X22	Y22	Z22	X23	Y23	Z23	X24	Y24	Z24	X25	Y25	Z25	X26	Y26	Z26	X27	Y27	Z27	X28	Y28	Z28	X29	Y29	Z29	X30	Y30	Z30	X31	Y31	Z31	X32	Y32	Z32	X33	Y33	Z33	X34	Y34	Z34	X35	Y35	Z35	X36	Y36	Z36	X37	Y37	Z37	X38	Y38	Z38	X39	Y39	Z39	X40	Y40	Z40	X41	Y41	Z41	X42	Y42	Z42	

398	  3.316667	1070.574233	963.261543	-414.473285	1049.700989	974.651889	-172.283867	898.254832	994.840234	-364.952150	889.881905	997.798531	-266.708926	1007.914245	811.129416	-129.642410	1111.992343	685.877037	-157.531166	1072.919750	582.915353	-177.393543	1038.971206	786.666695	-471.855939	1135.608313	704.944928	-453.384067	1093.027815	572.284255	-442.031757	1111.571894	356.093785	-250.995174	1044.157985	318.214956	-191.005566	1020.641991	198.606191	-260.171375	1048.566311	384.376144	-387.451409	942.846146	383.485836	-436.611593	863.754883	321.150526	-375.539745	848.831413	 89.209050	-280.821447	1060.913100	 74.828499	-306.008371	1047.593731	 45.715789	-198.313677	704.739415	381.574261	-366.301347	766.484071	185.107333	-335.938184	735.000455	183.052482	-440.230813	1038.936309	1447.270003	-468.465780	1036.789376	1415.048724	-100.291805	1110.093963	1384.748509	-263.335830	1002.073325	1477.256886	-292.576947	1004.958764	1325.952011	-61.580949	998.604052	1237.224863	-82.001475	913.161789	1247.579232	-59.425732	870.748976	1143.024104	-44.810561	992.335423	1383.424080	-519.741825	920.946565	1346.552010	-490.147949	953.529723	1287.029577	-542.080504	854.727720	1218.190579	-573.009103	942.859692	1081.141239	-35.499494	1034.879471	926.501239	-64.986583	970.133049	899.023337	-71.318597	923.272922	1166.689738	-564.922792	1053.161519	1050.319319	-473.893644	1004.826752	1006.857623	-498.514038	822.842045	1221.890564	-505.251321	855.530867	1144.341572	-109.837341	
399	  3.325000	1068.668914	962.002780	-414.698808	1047.446298	972.862689	-172.117122	896.513465	994.308796	-365.429970	888.108641	997.274860	-267.525598	1004.019980	810.508605	-129.285996	1105.703919	683.209488	-156.077930	1065.146689	580.318575	-175.970009	1039.341912	785.790077	-472.119412	1140.082691	707.851561	-453.720054	1101.561809	574.287288	-443.095133	1099.751354	352.989030	-249.672231	1031.730788	316.021123	-190.367669	1005.719819	197.250357	-260.363150	1061.365506	385.249692	-388.230533	955.523255	384.449835	-437.415839	877.444294	320.329965	-376.349225	832.372765	 89.894892	-280.528398	1044.281955	 74.747978	-305.470252	1030.726989	 45.453959	-197.903081	716.684652	377.775334	-366.161860	782.841443	182.271988	-338.574570	752.160456	181.318269	-443.129507	1035.865906	1445.922056	-468.164970	1037.993498	1413.970337	-99.774397	1109.192214	1383.530549	-263.961702	1000.750117	1476.095585	-291.812183	1007.339944	1324.238107	-61.250820	1003.608447	1235.062563	-82.494003	917.957331	1243.687108	-58.148506	879.059199	1137.459686	-42.160611	988.138897	1382.255591	-518.647580	917.561051	1344.879600	-486.700383	948.097129	1286.372392	-540.383563	848.384533	1217.996883	-569.867653	953.558619	1078.201887	-35.098197	1049.817466	927.146411	-67.120277	986.088168	897.234677	-71.846739	916.315530	1165.063726	-563.308549	1044.023733	1041.222946	-476.906653	992.879208	1000.898845	-501.212049	818.464292	1220.780369	-501.471740	861.975478	1138.317849	-106.859990	
400	  3.333333	1066.879208	961.527704	-414.666776	1045.717950	972.025989	-172.313237	894.758956	994.741557	-365.537555	886.400856	997.738033	-267.984768	999.961732	810.895430	-128.798285	1098.651754	681.118739	-154.800987	1056.137012	578.513621	-174.847771	1039.587331	786.023333	-472.632079	1143.987680	711.849520	-454.049964	1109.538612	577.400240	-443.762927	1086.915323	350.307485	-248.678497	1018.003763	314.149677	-190.231235	990.293473	196.083530	-260.694800	1074.184362	386.516029	-388.951374	968.282698	385.333988	-437.990428	891.547088	319.200235	-376.995697	815.897622	 90.697911	-280.363778	1027.610190	 74.689235	-304.954405	1013.793915	 45.288198	-197.515216	728.763431	372.745108	-366.088348	800.327045	178.829436	-340.785508	770.377481	178.505448	-445.491334	1032.874617	1445.609243	-467.998320	1039.359566	1414.399670	-99.502005	1108.261510	1383.329987	-264.682795	999.490708	1475.941984	-291.191739	1009.558885	1324.469893	-60.684438	1008.047108	1234.929111	-82.521769	922.170786	1241.788260	-57.600673	886.639482	1134.246156	-40.204446	984.049184	1382.218108	-517.772980	914.217588	1344.677527	-483.786592	942.665009	1286.899655	-538.772982	841.867129	1219.334888	-566.820765	963.428746	1077.714276	-34.782661	1064.723573	930.855621	-69.300007	1002.369694	898.243614	-72.756112	909.030938	1165.047336	-561.976646	1034.880920	1035.110707	-480.057169	981.498872	997.414515	-503.326371	813.907336	1221.269985	-497.866740	868.483164	1134.568878	-104.829622	
401	  3.341667	1065.162181	961.813285	-414.319906	1044.467504	972.652130	-172.472230	892.952396	996.121417	-365.348884	884.683088	999.148092	-268.218920	995.894283	811.943514	-128.358989	1090.947536	679.594541	-154.006072	1046.088196	577.639869	-174.166064	1039.667460	787.525669	-473.309075	1147.345173	716.820405	-454.462948	1116.938432	581.660326	-444.207527	1073.147946	348.209506	-248.143640	1003.202509	312.962855	-190.417280	974.559776	195.396103	-260.586635	1086.833056	388.744296	-389.572233	980.995652	386.111444	-438.289693	905.979569	317.777030	-377.471510	799.407106	 91.727879	-280.262111	1010.907132	 74.652081	-304.517479	996.859185	 45.175886	-197.163056	740.969694	366.474920	-366.015946	818.964453	174.890677	-342.457887	789.517898	174.640372	-447.251568	1029.929104	1446.399157	-467.966570	1040.850439	1416.222319	-99.484578	1107.364785	1384.212483	-265.526058	998.305983	1476.756065	-290.776032	1011.889586	1326.298238	-60.107143	1012.047137	1236.475599	-82.123956	925.949946	1241.723104	-57.408042	893.347340	1133.170580	-38.801046	979.977563	1383.485869	-517.070264	910.772865	1346.147511	-481.408721	937.232479	1288.750996	-537.251113	835.150766	1222.208770	-563.779541	972.455726	1079.374426	-34.494081	1079.301679	937.462736	-71.506435	1018.571354	901.977057	-74.034352	901.462770	1166.678340	-560.848005	1026.124898	1032.248698	-483.607232	970.972511	996.438689	-504.971136	809.264048	1223.456018	-494.337410	874.829484	1132.992511	-103.619476	
